<svg viewBox="0 0 40 40" xmlns="http://www.w3.org/2000/svg">
  <!-- Body segments - the classic pillbug armored look -->
  <ellipse cx="20" cy="22" rx="14" ry="11" fill="#4f46e5"/>
  <!-- Head -->
  <ellipse cx="20" cy="12" rx="8" ry="6" fill="#6366f1"/>
  <!-- Antennae -->
  <path d="M15 9 Q12 4 9 3" fill="none" stroke="#818cf8" stroke-width="1.5" stroke-linecap="round"/>
  <path d="M25 9 Q28 4 31 3" fill="none" stroke="#818cf8" stroke-width="1.5" stroke-linecap="round"/>
  <circle cx="9" cy="3" r="1.2" fill="#a5b4fc"/>
  <circle cx="31" cy="3" r="1.2" fill="#a5b4fc"/>
  <!-- Eyes -->
  <circle cx="17" cy="11" r="1.5" fill="#e0e7ff"/>
  <circle cx="23" cy="11" r="1.5" fill="#e0e7ff"/>
  <circle cx="17.3" cy="11.2" r="0.7" fill="#1e1b4b"/>
  <circle cx="23.3" cy="11.2" r="0.7" fill="#1e1b4b"/>
  <!-- Armor segments -->
  <path d="M7 18 Q20 16 33 18" fill="none" stroke="#312e81" stroke-width="1.2"/>
  <path d="M6 22 Q20 20 34 22" fill="none" stroke="#312e81" stroke-width="1.2"/>
  <path d="M7 26 Q20 24 33 26" fill="none" stroke="#312e81" stroke-width="1.2"/>
  <path d="M9 30 Q20 28 31 30" fill="none" stroke="#312e81" stroke-width="1.2"/>
  <!-- Tiny legs -->
  <line x1="10" y1="19" x2="6" y2="22" stroke="#818cf8" stroke-width="1" stroke-linecap="round"/>
  <line x1="10" y1="23" x2="5" y2="26" stroke="#818cf8" stroke-width="1" stroke-linecap="round"/>
  <line x1="11" y1="27" x2="7" y2="31" stroke="#818cf8" stroke-width="1" stroke-linecap="round"/>
  <line x1="30" y1="19" x2="34" y2="22" stroke="#818cf8" stroke-width="1" stroke-linecap="round"/>
  <line x1="30" y1="23" x2="35" y2="26" stroke="#818cf8" stroke-width="1" stroke-linecap="round"/>
  <line x1="29" y1="27" x2="33" y2="31" stroke="#818cf8" stroke-width="1" stroke-linecap="round"/>
</svg>
